<svg width="1024" height="1024" viewBox="0 0 1024 1024" fill="none" xmlns="http://www.w3.org/2000/svg">
<rect width="1024" height="1024" fill="white"/>
<path fill-rule="evenodd" clip-rule="evenodd" d="M476.405 383.878C487.254 373.611 492.678 358.818 492.678 339.5C492.678 319.792 487.254 305 476.405 295.121C468.281 286.752 456.533 282.567 441.161 282.567C425.788 282.567 414.04 286.752 405.916 295.121C395.019 305 389.57 319.792 389.57 339.5C389.57 358.818 395.019 373.611 405.916 383.878C414.04 392.248 425.788 396.433 441.161 396.433C456.533 396.433 468.281 392.248 476.405 383.878ZM360.069 288.625C356.007 286.922 350.205 285.998 342.665 285.852H289.907V393.44H311.872V351.251H335.076C341.692 351.251 346.204 352.395 348.612 354.682C351.02 356.969 352.273 361.543 352.37 368.404L352.516 378.404C352.565 381.567 352.881 384.657 353.465 387.674C353.757 389.134 354.243 391.056 354.924 393.44H379.661V390.74C377.521 389.426 376.159 387.382 375.575 384.608C375.186 382.856 374.991 379.523 374.991 374.609V367.382C374.991 359.84 373.957 354.232 371.89 350.558C369.822 346.884 366.308 344.05 361.346 342.055C367.281 340.011 371.537 336.519 374.115 331.58C376.694 326.641 377.983 321.617 377.983 316.508C377.983 312.274 377.302 308.503 375.94 305.194C374.578 301.885 372.729 298.868 370.394 296.143C367.572 292.834 364.131 290.328 360.069 288.625ZM311.871 333.442V304.537H337.995C342.859 304.537 346.508 305.17 348.94 306.435C353.27 308.673 355.435 313.053 355.435 319.573C355.435 325.607 353.197 329.646 348.721 331.69C346.192 332.858 342.397 333.442 337.338 333.442H311.871ZM441.161 377.382C450.063 377.382 457.129 374.098 462.359 367.528C467.588 360.959 470.203 351.616 470.203 339.5C470.203 327.432 467.588 318.101 462.359 311.508C457.129 304.914 450.063 301.618 441.161 301.618C432.258 301.618 425.156 304.902 419.853 311.471C414.551 318.041 411.9 327.383 411.9 339.5C411.9 351.616 414.551 360.959 419.853 367.528C425.156 374.098 432.258 377.382 441.161 377.382ZM522.363 360.229C523.044 365.144 524.381 368.818 526.376 371.251C530.024 375.679 536.275 377.893 545.129 377.893C550.432 377.893 554.737 377.309 558.045 376.141C564.321 373.903 567.458 369.743 567.458 363.66C567.458 360.108 565.902 357.358 562.788 355.412C559.675 353.514 554.786 351.835 548.121 350.376L536.738 347.821C525.549 345.291 517.814 342.541 513.533 339.573C506.285 334.61 502.66 326.848 502.66 316.289C502.66 306.654 506.163 298.649 513.168 292.275C520.173 285.9 530.462 282.713 544.035 282.713C555.37 282.713 565.038 285.718 573.041 291.727C581.043 297.737 585.239 306.459 585.628 317.895H564.029C563.639 311.423 560.818 306.824 555.564 304.099C552.061 302.299 547.708 301.399 542.502 301.399C536.713 301.399 532.092 302.567 528.638 304.902C525.184 307.238 523.457 310.498 523.457 314.683C523.457 318.527 525.16 321.398 528.565 323.296C530.754 324.561 535.424 326.045 542.575 327.748L561.11 332.201C569.234 334.147 575.363 336.751 579.498 340.011C585.92 345.072 589.131 352.395 589.131 361.981C589.131 371.811 585.373 379.973 577.857 386.47C570.341 392.966 559.723 396.214 546.005 396.214C531.995 396.214 520.976 393.014 512.949 386.616C504.923 380.217 500.909 371.421 500.909 360.229H522.363ZM600.28 393.44H622.609V285.852H600.28V393.44ZM669.222 352.784H696.513L683.087 310.45L669.222 352.784ZM696.003 285.852H670.609L632.226 393.44H655.723L663.166 371.324H702.789L709.721 393.44H734.093L696.003 285.852Z" fill="#DD2487"/>
<path d="M321.667 672.433H228.649V456.515H321.667C335.046 456.71 346.179 458.273 355.065 461.203C370.202 466.183 382.458 475.314 391.833 488.595C399.352 499.337 404.479 510.958 407.214 523.458C409.948 535.958 411.315 547.872 411.315 559.201C411.315 587.911 405.554 612.228 394.03 632.15C378.405 659.005 354.284 672.433 321.667 672.433ZM355.212 511.593C348.278 499.874 334.558 494.015 314.05 494.015H272.448V634.933H314.05C335.339 634.933 350.183 624.435 358.581 603.439C363.171 591.915 365.466 578.195 365.466 562.277C365.466 540.304 362.048 523.41 355.212 511.593ZM533.387 672.433H435.536V456.515H540.418C566.883 456.906 585.633 464.572 596.668 479.513C603.309 488.693 606.629 499.679 606.629 512.472C606.629 525.656 603.309 536.251 596.668 544.259C592.957 548.751 587.489 552.853 580.262 556.564C591.297 560.568 599.598 566.915 605.164 575.607C610.828 584.298 613.66 594.845 613.66 607.247C613.66 620.04 610.438 631.515 603.993 641.671C599.891 648.409 594.764 654.074 588.612 658.663C581.678 663.937 573.475 667.55 564.002 669.503C554.627 671.456 544.422 672.433 533.387 672.433ZM532.362 577.365H478.602V634.933H531.629C541.102 634.933 548.475 633.663 553.748 631.124C563.319 626.437 568.104 617.452 568.104 604.171C568.104 592.941 563.465 585.226 554.188 581.027C549.012 578.683 541.737 577.462 532.362 577.365ZM554.774 536.203C560.633 532.687 563.563 526.388 563.563 517.306C563.563 507.248 559.657 500.607 551.844 497.384C545.106 495.138 536.512 494.015 526.063 494.015H478.602V541.622H531.629C541.102 541.622 548.817 539.816 554.774 536.203ZM719.326 641.232C729.971 641.232 738.613 640.06 745.254 637.716C757.851 633.224 764.15 624.874 764.15 612.667C764.15 605.538 761.025 600.021 754.775 596.115C748.525 592.306 738.711 588.937 725.332 586.007L702.48 580.88C680.019 575.802 664.492 570.285 655.898 564.328C641.348 554.367 634.072 538.79 634.072 517.599C634.072 498.263 641.103 482.199 655.166 469.406C669.228 456.613 689.883 450.216 717.129 450.216C739.883 450.216 759.267 456.271 775.283 468.38C791.396 480.392 799.844 497.873 800.625 520.822H757.265C756.484 507.833 750.82 498.605 740.273 493.136C733.242 489.523 724.502 487.716 714.053 487.716C702.432 487.716 693.154 490.06 686.221 494.748C679.287 499.435 675.82 505.978 675.82 514.376C675.82 522.091 679.238 527.853 686.074 531.662C690.469 534.201 699.844 537.179 714.199 540.597L751.406 549.533C767.715 553.439 780.019 558.663 788.32 565.206C801.211 575.363 807.656 590.06 807.656 609.298C807.656 629.025 800.088 645.431 784.951 658.517C769.912 671.505 748.623 677.999 721.084 677.999C692.959 677.999 670.84 671.603 654.727 658.81C638.613 645.919 630.557 628.243 630.557 605.783H673.623C674.99 615.646 677.676 623.019 681.68 627.902C689.004 636.788 701.553 641.232 719.326 641.232Z" fill="#2E384D"/>
</svg>
